<svg xmlns="http://www.w3.org/2000/svg" viewBox="0 0 72.6 67.28"><defs><style>.cls-1{fill:#fab600;}</style></defs><g id="Layer_2" data-name="Layer 2"><path class="cls-1" d="M40.32,34.06c2,5,1.85,13-2.56,19.57a20.16,20.16,0,0,0,17.42,7.75C63.54,41.11,39.84,32.7,40.32,34.06Z"/><path class="cls-1" d="M32.47,34.86A21.83,21.83,0,0,1,45.59,20.63c1.49-.58-.41-11.33-9.08-16.69C17.73,15.56,32.21,36.11,32.47,34.86Z"/><path class="cls-1" d="M36.52,31.54A22.13,22.13,0,0,1,54,40.06,20.21,20.21,0,0,0,66.7,25.88C50.35,12,33.76,31.54,36.52,31.54Z"/><path class="cls-1" d="M39,38.93c-3.67,3.24-11.4,5.51-18.68,3.61-1.6-.42-6.29,9.58-2.46,18.84C39.09,63,41.24,37.28,39,38.93Z"/><path class="cls-1" d="M34.49,39.3a22.18,22.18,0,0,1-9.55-17.43,20.09,20.09,0,0,0-18.61,4A20.21,20.21,0,0,0,22.82,41,19.57,19.57,0,0,0,34.49,39.3Z"/><path class="cls-1" d="M19.73,40.3a20.32,20.32,0,0,0,3.09.73A20.7,20.7,0,0,1,19.73,40.3Z"/></g></svg>